<?xml version="1.0" standalone="no"?>
<!DOCTYPE svg PUBLIC "-//W3C//DTD SVG 20010904//EN"
 "http://www.w3.org/TR/2001/REC-SVG-20010904/DTD/svg10.dtd">
<svg version="1.0" xmlns="http://www.w3.org/2000/svg"
 width="999.000000pt" height="999.000000pt" viewBox="0 0 999.000000 999.000000"
 preserveAspectRatio="xMidYMid meet">
<metadata>
Created by potrace 1.14, written by Peter Selinger 2001-2017
</metadata>
<g transform="translate(0.000000,999.000000) scale(0.100000,-0.100000)"
fill="#000000" stroke="none">
<path d="M4978 9924 c-2 -1 -75 -5 -163 -9 -205 -8 -268 -14 -359 -31 -11 -2
-42 -6 -70 -9 -73 -8 -258 -39 -301 -49 -48 -12 -75 -18 -180 -41 -66 -15
-192 -49 -280 -77 -150 -47 -223 -70 -235 -73 -5 -1 -23 -9 -110 -48 -25 -11
-79 -34 -120 -52 -141 -61 -175 -76 -195 -87 -11 -6 -78 -41 -150 -79 -286
-148 -506 -292 -735 -481 -102 -83 -190 -156 -196 -162 -28 -29 -189 -173
-212 -191 -42 -33 -329 -372 -463 -546 -69 -90 -172 -240 -229 -334 -102 -167
-285 -519 -330 -632 -13 -32 -33 -80 -45 -108 -12 -27 -32 -77 -45 -110 -13
-33 -26 -64 -30 -70 -7 -9 -51 -145 -56 -173 -1 -7 -9 -34 -18 -60 -37 -112
-72 -234 -82 -288 -2 -12 -13 -66 -25 -120 -11 -55 -22 -108 -25 -119 -20
-100 -26 -132 -39 -230 -3 -27 -8 -61 -10 -75 -31 -210 -31 -208 -41 -455 -4
-93 -7 -186 -7 -205 0 -63 14 -384 19 -422 2 -21 6 -57 9 -80 3 -24 8 -63 11
-88 5 -46 11 -86 19 -130 2 -14 7 -49 10 -79 4 -30 8 -61 10 -70 2 -9 17 -79
34 -157 16 -77 33 -156 36 -175 8 -41 8 -42 24 -99 6 -25 16 -54 20 -65 5 -11
19 -56 31 -100 42 -149 67 -219 139 -395 176 -426 406 -836 636 -1130 115
-147 237 -296 254 -310 4 -3 35 -40 71 -83 60 -74 326 -321 472 -438 36 -30
108 -88 160 -130 96 -78 379 -264 490 -323 235 -123 342 -178 408 -206 41 -17
98 -42 125 -55 124 -56 408 -157 565 -199 12 -4 284 -64 365 -82 22 -4 186
-30 250 -39 22 -3 51 -7 65 -10 14 -2 45 -7 70 -10 25 -3 59 -7 75 -9 32 -5
351 -19 425 -19 170 -1 426 18 600 44 74 11 151 23 170 25 29 5 82 15 246 48
158 33 321 78 529 148 33 11 65 21 70 23 6 1 24 8 40 15 17 7 32 14 35 15 3 0
25 10 50 22 25 11 90 40 145 63 55 23 168 77 250 120 83 43 175 91 205 106 30
16 57 31 60 34 3 3 13 10 22 15 140 82 356 231 483 335 144 118 199 166 356
308 25 23 59 52 73 63 75 59 546 635 619 758 18 29 39 65 48 80 177 290 293
518 414 811 81 196 89 216 129 350 14 47 37 126 52 175 30 99 29 95 39 144 3
19 19 96 35 170 28 133 52 273 65 380 4 30 8 63 10 73 2 11 7 46 10 79 4 33 8
68 10 77 3 20 18 356 18 422 0 147 -16 436 -28 510 -3 19 -7 53 -10 75 -2 22
-6 54 -9 70 -6 39 -14 98 -21 155 -3 25 -14 86 -25 135 -10 50 -21 101 -24
115 -2 14 -11 57 -20 95 -8 39 -17 82 -20 95 -5 24 -29 107 -92 315 -22 75
-63 182 -127 335 -6 14 -11 27 -12 30 -2 5 -8 21 -48 116 -117 277 -371 709
-558 949 -146 189 -405 492 -445 524 -16 13 -49 42 -74 65 -317 295 -649 544
-933 699 -111 62 -368 191 -427 216 -30 13 -77 33 -105 46 -134 60 -504 189
-603 210 -119 26 -222 47 -242 51 -14 3 -33 7 -42 10 -28 8 -59 14 -163 30
-55 8 -111 17 -125 19 -141 22 -240 32 -430 41 -80 3 -166 7 -192 9 -26 1 -49
1 -50 -1z"/>
</g>
</svg>
